<?xml version="1.0" encoding="utf-8"?>
<!-- Generator: Adobe Illustrator 26.3.1, SVG Export Plug-In . SVG Version: 6.00 Build 0)  -->
<svg version="1.1" id="レイヤー_1" xmlns="http://www.w3.org/2000/svg" xmlns:xlink="http://www.w3.org/1999/xlink" x="0px"
	 y="0px" viewBox="0 0 50 50" style="enable-background:new 0 0 50 50;" xml:space="preserve">
<style type="text/css">
	.st0{fill:#904669;}
</style>
<g transform="translate(-119.000000, -15.000000)">
	<g id="Group-5" transform="translate(116.000000, 3.000000)">
		<path id="StayWorld" class="st0" d="M-15.5,19.6c0,0.3-0.7,0.9-2,1.7c-1.8,1-3.1,1.9-3.8,2.5c-1.1,0.9-2.2,2.2-3.2,3.7
			c-0.3,0.4-1.1,1.8-2.5,4.2c-1,1.7-1.6,2.5-2,2.5c-0.2,0-0.3-0.2-0.3-0.6c0,0,0-0.1,0.1-0.3v-0.5c0-5.1,1.2-9.5,3.6-13.2
			c2.1-3.3,4.3-4.9,6.6-4.9c0.3,0,0.4,0.3,0.4,0.9c0,0.1-0.3,0.3-0.8,0.8c-0.5,0.5-0.8,0.9-0.8,1.4c0,1.4,0.6,2,1.9,2
			c0.2,0,0.5-0.1,0.9-0.4c0.4-0.3,0.7-0.4,0.9-0.4h0.8C-15.6,19.3-15.5,19.5-15.5,19.6z M-22.9,10.1c-5.1,7.8-7.6,15.4-7.7,23
			c-0.5,0-0.8-0.8-0.9-2.2l-0.7-6.4c-0.5-3-1.2-6.3-2.1-9.9c-0.6-2.3-0.9-4.1-0.9-5.6c0-0.3,0.3-0.6,0.8-0.7
			c0.2,0.1,0.4,0.2,0.6,0.2c0.8,0,1.2-0.2,1.5-0.6c0.1-0.2,0.2-0.8,0.2-1.6c0-0.7,0.4-1,1.2-1c0.7,0,1,0.4,1.2,1.1s0.3,1.1,0.6,1.1
			c0.2,0,0.6-0.2,1.2-0.7c0.6-0.5,1-0.7,1.2-0.7c0.9,0,1.4,0.3,1.4,0.9c0,0.2-0.1,0.6-0.2,0.9c-0.1,0.4-0.2,0.6-0.2,0.8
			c0,0.5,0.3,0.7,1,0.7c0.1,0,0.3-0.1,0.6-0.2C-24,9.1-23.9,9-23.8,9C-23.4,9-23.1,9.4-22.9,10.1z M-11.9,27.8c0,0.5-0.3,0.8-1,0.8
			c-0.1,0-0.2,0-0.4-0.1s-0.4-0.1-0.5-0.1c-0.5,0-0.8,0.2-1.2,0.6c-0.3,0.4-0.5,0.8-0.5,1.4c0,0.6,0.4,1.3,1.3,2.2
			c0.9,0.9,1.3,1.4,1.3,1.6c0,0.5-0.4,0.7-1.3,0.7c-0.4,0-1.2-0.2-2.4-0.7c-1.2-0.5-2-0.7-2.6-0.7s-1.7,0.3-3.4,1s-3,1-3.9,1
			c-0.4,0-0.6-0.2-0.6-0.7c1-2.1,2-4,3.2-5.5s2.4-2.5,3.8-3c1-0.4,2.6-0.6,4.7-0.6c0.8,0,1.6,0.3,2.4,0.8
			C-12.3,27-11.9,27.4-11.9,27.8z M-32.3,31.5c0,0.4-0.1,0.9-0.4,1.4c-0.3,0.5-0.5,0.8-0.6,0.8c-0.4,0-1.1-1.5-2.2-4.4
			c-3-4.3-6.4-7.8-10.1-10.3c-0.2-0.1-0.3-0.2-0.3-0.3c0-0.5,0.4-0.8,1.1-0.8c0.3,0,0.7,0.1,1.3,0.3c0.6,0.2,1,0.3,1.2,0.3
			c0.4,0,0.8-0.2,1.2-0.7c0.5-0.5,0.7-0.9,0.7-1.4c0-0.8-0.4-1.4-1.1-2l-1.1-0.9c0-0.2,0.2-0.4,0.5-0.6c0.3-0.2,0.7-0.3,1-0.3
			c0.8,0,1.7,0.5,2.8,1.6c1.2,1.1,2.2,2.6,3.1,4.4c0.2,0.3,0.7,2.5,1.6,6.3C-32.7,28.7-32.3,30.9-32.3,31.5z M-35,33.7
			c-0.6,0.5-1.1,0.7-1.6,0.7c-0.2,0-0.7-0.4-1.6-1.3c-0.9-0.9-1.7-1.3-2.5-1.3h-1c-0.5,0-1.4,0.5-2.8,1.4c-1.4,0.9-2.3,1.4-2.7,1.4
			c-0.8,0-1.2-0.4-1.2-1.1c0-0.4,0.3-0.9,0.9-1.5c0.6-0.6,0.9-1.3,0.9-1.9c0-0.9-0.2-1.6-0.6-2.1c-0.2-0.3-0.6-0.5-1.2-0.7
			c-0.4-0.2-0.6-0.3-0.6-0.5c0-0.7,0.3-1,0.8-1h0.5c0.5,0,1.1,0,2-0.1c0.9-0.1,1.6-0.1,2-0.1c1.3,0,2.4,0.2,3.2,0.6
			c0.6,0.3,1.4,0.9,2.3,1.9C-36.4,29.6-35.3,31.6-35,33.7z M-24.1,41.9c0,1.3-0.3,2.6-1,4s-1.2,2.1-1.7,2.1c-0.4,0-0.6-0.3-0.6-1
			c0-0.2,0-0.5,0.1-0.8v-0.9c0-1.4-0.4-2.6-1.3-3.5s-1.9-1.4-3-1.4c-0.9,0-1.8,0.3-2.5,0.9c-0.7,0.6-1.2,1.3-1.5,2.3
			c-0.2,0.9-0.4,2.1-0.5,3.5c-0.1,0.8-0.2,1.2-0.4,1.2c-0.5,0-1-0.5-1.6-1.6c-0.7-1.3-1.1-2.8-1.1-4.3c0-1.7,0.7-3.3,2.1-4.6
			c1.6-1.4,3.5-2.1,5.8-2.1c2.2,0,4,0.6,5.3,1.8S-24.1,39.9-24.1,41.9z M-28.5,44.5c0,0.8-0.3,1.6-0.8,2.4c-0.7,1-1,1.6-1,1.8
			c0,0.9-0.2,2.5-0.5,4.7c-0.2,1.1-0.6,1.7-1.1,1.7c-0.6,0-0.9-1.1-0.9-3.2c0-0.1,0-0.2,0.1-0.4v-0.4c0-1.4-0.2-2.7-0.7-3.8
			c-0.5-1.1-0.7-1.8-0.7-2c0-2.3,0.9-3.4,2.6-3.4c0.8,0,1.5,0.3,2.1,0.8C-28.9,43.1-28.5,43.7-28.5,44.5z M-29.1,12.8
			c0-0.3-0.1-0.7-0.4-1.1c-0.3-0.5-0.5-0.7-0.6-0.7c-0.2,0-0.5,0.3-0.7,0.9c-0.2,0.6-0.4,1.3-0.4,2c0,1,0.1,1.9,0.3,2.8
			c0.2,0.9,0.4,1.4,0.5,1.4C-29.5,16.1-29.1,14.3-29.1,12.8z M-21.8,20.6c-0.2-0.1-0.5-0.2-0.6-0.2c-0.2,0-0.4,0-0.5,0.1
			c-0.6,0.6-1.3,1.7-2.2,3.3C-23,22-21.9,21-21.8,20.6z M-18.1,29.8c0-0.5-0.3-0.8-0.8-0.9c-2.3,1-3.4,1.8-3.4,2.5
			c0,0.1,0,0.2,0.1,0.2c0.1,0,1.3-0.4,3.6-1.1C-18.2,30.2-18.1,29.9-18.1,29.8z M-36.2,24.5c-0.9-2.5-1.5-4.1-1.8-4.6l-1.6,0.3
			C-39.2,20.9-38.1,22.3-36.2,24.5z M-38.9,29.8c-1-0.6-2.4-1.2-4.1-1.8c-0.4,0.5-0.6,0.9-0.6,1.1c0,0.1,0.1,0.2,0.2,0.4
			C-41.4,29.6-39.9,29.7-38.9,29.8z"/>
	</g>
</g>
</svg>
