<?xml version="1.0" encoding="UTF-8"?><svg id="_イヤー_1" xmlns="http://www.w3.org/2000/svg" xmlns:xlink="http://www.w3.org/1999/xlink" viewBox="0 0 640 640"><defs><style>.cls-1{fill:url(#_称未設定グラデーション_4);}</style><linearGradient id="_称未設定グラデーション_4" x1="320" y1="0" x2="320" y2="640" gradientTransform="matrix(1, 0, 0, 1, 0, 0)" gradientUnits="userSpaceOnUse"><stop offset="0" stop-color="#fff"/><stop offset=".03" stop-color="#fcf7f7"/><stop offset=".13" stop-color="#f4e0e0"/><stop offset=".24" stop-color="#eecece"/><stop offset=".38" stop-color="#eac2c2"/><stop offset=".56" stop-color="#e7bbbb"/><stop offset="1" stop-color="#e7b9b9"/></linearGradient></defs><path class="cls-1" d="M320,2c42.93,0,84.58,8.41,123.78,24.99,37.87,16.02,71.88,38.95,101.08,68.15,29.21,29.21,52.13,63.21,68.15,101.08,16.58,39.2,24.99,80.85,24.99,123.78s-8.41,84.58-24.99,123.78c-16.02,37.87-38.95,71.88-68.15,101.08-29.21,29.21-63.21,52.13-101.08,68.15-39.2,16.58-80.85,24.99-123.78,24.99s-84.58-8.41-123.78-24.99c-37.87-16.02-71.88-38.95-101.08-68.15-29.21-29.21-52.13-63.21-68.15-101.08C10.41,404.58,2,362.93,2,320s8.41-84.58,24.99-123.78c16.02-37.87,38.95-71.88,68.15-101.08,29.21-29.21,63.21-52.13,101.08-68.15C235.42,10.41,277.07,2,320,2m0-2C143.27,0,0,143.27,0,320s143.27,320,320,320,320-143.27,320-320S496.73,0,320,0h0Z"/></svg>